<svg xmlns="http://www.w3.org/2000/svg" viewBox="0 0 512 512" role="img" aria-label="Star Paper Dark Logo">
  <defs>
    <linearGradient id="starBase" x1="0%" y1="0%" x2="100%" y2="100%">
      <stop offset="0%" stop-color="#3a4453"/>
      <stop offset="52%" stop-color="#141920"/>
      <stop offset="100%" stop-color="#060709"/>
    </linearGradient>
    <linearGradient id="starRim" x1="8%" y1="0%" x2="92%" y2="100%">
      <stop offset="0%" stop-color="#7a8799"/>
      <stop offset="100%" stop-color="#303745"/>
    </linearGradient>
    <linearGradient id="goldFill" x1="0%" y1="0%" x2="100%" y2="100%">
      <stop offset="0%" stop-color="#ffefbf"/>
      <stop offset="45%" stop-color="#f3c76c"/>
      <stop offset="100%" stop-color="#aa7021"/>
    </linearGradient>
    <filter id="shadow" x="-30%" y="-30%" width="160%" height="180%">
      <feDropShadow dx="0" dy="12" stdDeviation="9" flood-color="#000000" flood-opacity="0.46"/>
    </filter>
  </defs>
  <ellipse cx="256" cy="420" rx="124" ry="17" fill="#000000" opacity="0.32"/>
  <polygon id="base-shape" filter="url(#shadow)" points="256,107.52 294.144,207.616 409.344,213.76 319.232,290.048 351.744,387.584 256,335.36 160.256,387.584 192.768,290.048 102.656,213.76 217.856,207.616" fill="url(#starBase)"/>
  <polygon id="edge-rim" points="256,107.52 294.144,207.616 409.344,213.76 319.232,290.048 351.744,387.584 256,335.36 160.256,387.584 192.768,290.048 102.656,213.76 217.856,207.616" fill="none" stroke="url(#starRim)" stroke-width="13" stroke-linejoin="round"/>
  <polygon id="glass-highlight" points="256,107.52 294.144,207.616 217.856,207.616" fill="#ffffff" opacity="0.86"/>
  <path d="M194 191 C218 163 294 163 318 191" id="metal-gold-chain" fill="none" stroke="url(#goldFill)" stroke-width="20" stroke-linecap="round"/>
  <path d="M194 191 C218 163 294 163 318 191" fill="none" stroke="#8d5a16" stroke-width="5" stroke-linecap="round" opacity="0.5"/>
  <text x="256" y="332" text-anchor="middle" font-size="250" font-family="'Segoe UI Black', 'Arial Black', sans-serif" font-weight="900" fill="url(#goldFill)" stroke="#a56f21" stroke-width="6">$</text>
</svg>
